<?xml version="1.0" standalone="no"?>
<!DOCTYPE svg PUBLIC "-//W3C//DTD SVG 20010904//EN"
 "http://www.w3.org/TR/2001/REC-SVG-20010904/DTD/svg10.dtd">
<svg version="1.0" xmlns="http://www.w3.org/2000/svg"
 width="300.000000pt" height="300.000000pt" viewBox="0 0 300.000000 300.000000"
 preserveAspectRatio="xMidYMid meet">

<g transform="translate(0.000000,300.000000) scale(0.100000,-0.100000)"
fill="#000000" stroke="none">
<path d="M1745 2538 c-36 -19 -55 -52 -55 -94 0 -52 26 -87 91 -119 27 -14 56
-36 64 -49 19 -29 11 -72 -15 -86 -27 -15 -81 -12 -114 5 -37 19 -36 19 -36
-11 0 -34 56 -58 118 -51 66 7 107 52 107 116 0 57 -18 82 -80 113 -87 44
-112 100 -60 134 26 17 48 14 113 -13 25 -10 8 41 -18 54 -31 16 -88 16 -115
1z"/>
<path d="M422 2343 l3 -198 93 -3 92 -3 0 26 c0 24 -2 25 -70 25 l-70 0 0 175
0 175 -25 0 -25 0 2 -197z"/>
<path d="M1980 2340 c0 -193 1 -200 20 -200 19 0 20 8 22 167 l3 168 64 -125
c102 -200 109 -212 140 -208 l26 3 3 198 2 197 -25 0 -24 0 -3 -154 -3 -154
-65 125 c-95 183 -95 183 -130 183 l-30 0 0 -200z"/>
<path d="M2360 2340 l0 -201 23 3 c20 3 22 9 25 76 l3 72 35 0 c85 0 134 49
134 134 0 36 -6 52 -29 78 -28 31 -33 33 -110 36 l-81 4 0 -202z m151 134 c13
-12 19 -30 19 -59 0 -51 -22 -75 -79 -82 l-41 -6 0 88 0 88 41 -6 c22 -3 49
-13 60 -23z"/>
<path d="M712 2430 c-42 -26 -62 -73 -62 -146 0 -106 53 -163 141 -151 102 14
150 147 93 259 -29 56 -112 74 -172 38z m120 -51 c43 -51 28 -172 -25 -197
-33 -16 -81 -2 -97 29 -11 20 -12 125 -1 153 18 46 89 55 123 15z"/>
<path d="M999 2420 c-31 -30 -32 -33 -26 -95 4 -37 2 -67 -3 -70 -13 -8 -13
-58 0 -71 7 -7 6 -20 -5 -40 -38 -73 4 -124 102 -124 73 0 123 38 123 95 0 57
-41 85 -125 85 -25 0 -48 6 -55 15 -19 23 -2 36 36 29 83 -15 151 67 114 137
-9 16 -7 19 15 19 15 0 25 6 25 14 0 21 -6 23 -92 31 -78 7 -78 7 -109 -25z
m105 -26 c21 -20 21 -78 0 -98 -35 -35 -94 -4 -94 49 0 53 59 84 94 49z m16
-247 c14 -7 26 -20 28 -29 5 -27 -34 -58 -74 -58 -67 0 -92 32 -62 80 15 23
69 27 108 7z"/>
<path d="M1304 2432 c-76 -48 -86 -213 -16 -275 50 -45 150 -27 185 33 40 66
30 185 -18 230 -34 32 -109 38 -151 12z m113 -46 c26 -22 28 -30 28 -95 0 -78
-15 -104 -67 -116 -22 -6 -33 -1 -59 24 -30 30 -31 35 -27 98 4 57 8 69 32 89
34 30 58 30 93 0z"/>
<path d="M1024 1745 c-10 -26 6 -35 62 -35 l54 0 0 -176 0 -175 23 3 c22 3 22
5 25 175 l2 172 53 3 c45 3 52 6 55 26 3 22 3 22 -133 22 -109 0 -137 -3 -141
-15z"/>
<path d="M1360 1560 l0 -200 75 0 c114 0 165 35 165 113 0 30 -7 46 -30 69
-28 27 -29 32 -16 47 39 43 26 130 -24 156 -18 9 -57 15 -100 15 l-70 0 0
-200z m151 134 c22 -19 24 -45 8 -77 -17 -31 -28 -37 -76 -37 l-43 0 0 63 c0
35 3 67 8 71 12 13 82 -1 103 -20z m19 -174 c26 -26 26 -72 -1 -96 -14 -13
-36 -18 -72 -19 l-52 0 -3 68 -3 67 56 0 c42 0 60 -5 75 -20z"/>
<path d="M1684 1747 c-2 -7 -3 -96 -2 -197 l3 -185 60 -3 c108 -6 182 32 206
106 7 20 12 66 11 103 0 131 -62 189 -200 189 -50 0 -74 -4 -78 -13z m149 -41
c45 -19 68 -48 78 -101 13 -68 -3 -134 -40 -167 -26 -23 -40 -28 -86 -28 l-55
0 0 155 0 155 35 0 c20 0 50 -6 68 -14z"/>
<path d="M478 954 c-28 -12 -38 -22 -38 -39 l0 -23 37 19 c48 24 78 24 103 -1
49 -49 6 -130 -70 -130 -33 0 -40 -3 -40 -20 0 -17 7 -20 40 -20 81 0 127 -49
101 -106 -20 -45 -83 -56 -144 -25 -40 20 -54 13 -37 -18 27 -51 159 -51 210
0 41 42 43 108 4 144 -15 14 -33 25 -42 25 -9 0 -2 11 17 29 26 24 31 37 31
74 0 63 -30 98 -90 103 -28 2 -60 -2 -82 -12z"/>
<path d="M825 960 c-27 -11 -61 -49 -74 -83 -16 -42 -14 -211 3 -252 21 -49
70 -77 125 -72 93 10 134 81 128 227 -4 104 -26 156 -73 176 -37 15 -78 17
-109 4z m94 -47 c41 -33 55 -187 25 -262 -20 -51 -64 -72 -103 -50 -44 25 -52
54 -49 172 3 105 4 110 31 133 33 28 67 31 96 7z"/>
<path d="M1145 960 c-27 -11 -61 -49 -74 -83 -16 -42 -14 -211 3 -252 21 -49
70 -77 125 -72 93 10 134 81 128 227 -4 104 -26 156 -73 176 -37 15 -78 17
-109 4z m94 -47 c41 -33 55 -187 25 -262 -20 -51 -64 -72 -103 -50 -44 25 -52
54 -49 172 3 105 4 110 31 133 33 28 67 31 96 7z"/>
<path d="M1718 954 c-28 -12 -38 -22 -38 -39 l0 -23 37 19 c48 24 78 24 103
-1 49 -49 6 -130 -70 -130 -33 0 -40 -3 -40 -20 0 -17 7 -20 40 -20 81 0 127
-49 101 -106 -20 -45 -83 -56 -144 -25 -40 20 -54 13 -37 -18 27 -51 159 -51
210 0 41 42 43 108 4 144 -15 14 -33 25 -42 25 -9 0 -2 11 17 29 26 24 31 37
31 74 0 63 -30 98 -90 103 -28 2 -60 -2 -82 -12z"/>
<path d="M2065 960 c-27 -11 -61 -49 -74 -83 -16 -42 -14 -211 3 -252 21 -49
70 -77 125 -72 93 10 134 81 128 227 -4 104 -26 156 -73 176 -37 15 -78 17
-109 4z m94 -47 c41 -33 55 -187 25 -262 -20 -51 -64 -72 -103 -50 -44 25 -52
54 -49 172 3 105 4 110 31 133 33 28 67 31 96 7z"/>
<path d="M2385 960 c-27 -11 -61 -49 -74 -83 -16 -42 -14 -211 3 -252 21 -49
70 -77 125 -72 93 10 134 81 128 227 -4 104 -26 156 -73 176 -37 15 -78 17
-109 4z m94 -47 c41 -33 55 -187 25 -262 -20 -51 -64 -72 -103 -50 -44 25 -52
54 -49 172 3 105 4 110 31 133 33 28 67 31 96 7z"/>
<path d="M1370 855 c0 -3 18 -34 40 -69 22 -35 40 -68 40 -73 0 -5 -18 -38
-40 -72 -45 -70 -48 -81 -20 -81 13 0 32 20 58 61 l39 61 37 -61 c29 -48 43
-61 62 -61 30 0 30 6 1 50 -13 19 -33 51 -45 70 l-21 36 30 44 c16 25 37 57
45 73 14 26 14 27 -10 27 -18 0 -31 -13 -57 -55 -18 -30 -36 -55 -39 -55 -3 0
-20 25 -38 55 -26 43 -39 55 -58 55 -13 0 -24 -2 -24 -5z"/>
</g>
</svg>
